<svg xmlns="http://www.w3.org/2000/svg" xmlns:xlink="http://www.w3.org/1999/xlink" width="1920" zoomAndPan="magnify" viewBox="0 0 1440 248.999984" height="332" preserveAspectRatio="xMidYMid meet" version="1.0"><defs><clipPath id="f4636453d4"><path d="M 648 34.070312 L 755 34.070312 L 755 193 L 648 193 Z M 648 34.070312 " clip-rule="nonzero"/></clipPath><clipPath id="9aa6561abb"><path d="M 1133 34.070312 L 1247 34.070312 L 1247 195 L 1133 195 Z M 1133 34.070312 " clip-rule="nonzero"/></clipPath><clipPath id="1a4a7fdc16"><path d="M 1266 80 L 1371.761719 80 L 1371.761719 195 L 1266 195 Z M 1266 80 " clip-rule="nonzero"/></clipPath><clipPath id="58ec27699d"><path d="M 6.011719 127 L 113 127 L 113 234.320312 L 6.011719 234.320312 Z M 6.011719 127 " clip-rule="nonzero"/></clipPath><clipPath id="b926862140"><path d="M 1381.0625 63.800781 L 1430.5625 63.800781 L 1430.5625 113.300781 L 1381.0625 113.300781 Z M 1381.0625 63.800781 " clip-rule="nonzero"/></clipPath></defs><path fill="#1e1a34" d="M 385.277344 157.488281 C 385.070312 149.1875 383.304688 142.027344 380.292969 135.90625 C 377.175781 129.683594 372.609375 124.703125 366.480469 121.070312 C 372.191406 116.921875 376.660156 111.835938 379.878906 105.714844 C 383.199219 99.488281 384.757812 92.847656 384.757812 85.585938 C 384.757812 78.324219 382.785156 68.675781 378.941406 61.515625 C 375.101562 54.460938 369.078125 48.859375 361.183594 44.707031 C 353.1875 40.660156 343.21875 38.585938 331.066406 38.585938 L 267.613281 38.585938 L 267.613281 192.039062 L 293.992188 192.039062 L 293.992188 132.171875 L 330.859375 132.171875 C 337.816406 132.171875 343.113281 133.105469 347.164062 134.972656 C 351.214844 136.839844 354.226562 139.640625 355.992188 143.378906 C 357.964844 147.113281 359.003906 152.09375 359.417969 158.109375 L 361.601562 192.140625 L 387.25 192.140625 L 385.382812 157.488281 Z M 351.109375 103.949219 C 346.542969 108.722656 339.167969 111.007812 329.09375 111.007812 L 293.785156 111.007812 L 293.785156 60.167969 L 328.886719 60.167969 C 339.0625 60.167969 346.4375 62.347656 351.007812 67.015625 C 355.472656 71.476562 357.859375 77.703125 357.859375 85.585938 C 357.859375 93.472656 355.578125 99.28125 351.007812 103.949219 Z M 351.109375 103.949219 " fill-opacity="1" fill-rule="nonzero"/><path fill="#1e1a34" d="M 505.539062 107.789062 C 500.449219 99.28125 493.492188 92.640625 484.871094 87.871094 C 476.25 83.097656 466.488281 80.710938 455.480469 80.710938 C 444.472656 80.710938 435.125 83.097656 426.402344 87.871094 C 417.574219 92.640625 410.617188 99.28125 405.527344 107.789062 C 400.441406 116.296875 397.84375 126.257812 397.84375 137.671875 C 397.84375 149.082031 400.441406 158.941406 405.527344 167.550781 C 410.617188 176.058594 417.574219 182.90625 426.300781 187.574219 C 434.917969 192.347656 444.679688 194.632812 455.480469 194.632812 C 466.28125 194.632812 476.148438 192.347656 484.769531 187.574219 C 493.492188 182.804688 500.449219 176.058594 505.539062 167.550781 C 510.625 158.941406 513.222656 148.980469 513.222656 137.671875 C 513.222656 126.363281 510.625 116.296875 505.539062 107.789062 Z M 481.859375 156.65625 C 479.054688 161.742188 475.421875 165.476562 470.746094 168.070312 C 466.179688 170.664062 460.984375 171.910156 455.378906 171.910156 C 449.769531 171.910156 444.785156 170.558594 440.214844 168.070312 C 435.644531 165.476562 431.90625 161.742188 429.101562 156.65625 C 426.300781 151.675781 424.949219 145.347656 424.949219 137.671875 C 424.949219 129.992188 426.300781 123.871094 429.101562 118.683594 C 431.90625 113.703125 435.542969 109.863281 440.320312 107.269531 C 444.890625 104.675781 450.082031 103.535156 455.378906 103.535156 C 460.675781 103.535156 466.074219 104.78125 470.746094 107.269531 C 475.316406 109.863281 479.054688 113.703125 481.859375 118.683594 C 484.664062 123.769531 486.015625 130.097656 486.015625 137.671875 C 486.015625 145.246094 484.664062 151.675781 481.859375 156.65625 Z M 481.859375 156.65625 " fill-opacity="1" fill-rule="nonzero"/><path fill="#1e1a34" d="M 596.40625 167.757812 C 591.839844 170.871094 586.4375 172.324219 580.101562 172.324219 C 573.769531 172.324219 570.03125 170.976562 565.5625 168.277344 C 561.097656 165.582031 557.566406 161.636719 554.972656 156.347656 C 552.269531 151.261719 550.921875 144.933594 550.921875 137.671875 C 550.921875 130.40625 552.269531 123.976562 554.972656 118.996094 C 557.566406 113.910156 561.097656 110.175781 565.5625 107.375 C 570.03125 104.675781 574.910156 103.328125 580.101562 103.328125 C 585.296875 103.328125 591.734375 104.886719 596.40625 107.894531 C 600.875 110.902344 603.78125 115.261719 605.441406 120.757812 L 632.757812 120.757812 C 630.054688 108.414062 624.136719 98.660156 614.789062 91.5 C 605.441406 84.339844 594.019531 80.710938 580.414062 80.710938 C 566.808594 80.710938 559.75 83.097656 551.234375 87.972656 C 542.71875 92.746094 536.070312 99.386719 531.292969 107.996094 C 526.414062 116.503906 524.023438 126.464844 524.023438 137.671875 C 524.023438 148.875 526.414062 158.835938 531.292969 167.449219 C 536.070312 175.957031 542.71875 182.597656 551.234375 187.472656 C 559.75 192.246094 569.511719 194.632812 580.414062 194.632812 C 591.320312 194.632812 605.441406 191 614.996094 183.53125 C 624.449219 176.164062 630.472656 166.515625 632.859375 154.480469 L 605.546875 154.480469 C 603.988281 160.183594 601.082031 164.542969 596.511719 167.550781 L 596.511719 167.757812 Z M 596.40625 167.757812 " fill-opacity="1" fill-rule="nonzero"/><g clip-path="url(#f4636453d4)"><path fill="#1e1a34" d="M 702.855469 129.164062 L 695.898438 120.757812 L 679.800781 136.839844 L 686.65625 145.660156 L 722.378906 192.039062 L 754.886719 192.039062 Z M 716.460938 83.40625 L 674.710938 128.332031 L 661.625 142.546875 L 673.050781 159.667969 L 674.710938 158.007812 L 686.65625 145.761719 L 702.855469 129.265625 L 747.617188 83.511719 L 716.460938 83.511719 Z M 648.542969 34.332031 L 648.542969 192.140625 L 674.816406 192.140625 L 674.816406 34.332031 Z M 648.542969 34.332031 " fill-opacity="1" fill-rule="nonzero"/></g><path fill="#1e1a34" d="M 855.828125 106.753906 C 851.46875 98.761719 845.132812 92.433594 837.03125 87.765625 C 829.035156 82.992188 819.480469 80.710938 808.992188 80.710938 C 798.503906 80.710938 788.117188 83.097656 779.601562 88.078125 C 771.085938 92.953125 764.542969 99.695312 759.765625 108.414062 C 755.195312 117.128906 752.808594 127.089844 752.808594 138.398438 C 752.808594 149.707031 755.09375 159.25 759.871094 167.65625 C 764.648438 176.164062 771.292969 182.804688 779.707031 187.574219 C 788.117188 192.347656 797.777344 194.632812 808.785156 194.632812 C 819.792969 194.632812 825.296875 193.074219 832.253906 189.859375 C 839.109375 186.539062 844.925781 182.179688 849.597656 176.785156 C 854.375 171.285156 857.699219 165.164062 859.566406 158.109375 L 832.773438 158.109375 C 830.90625 162.570312 827.894531 166.203125 823.738281 168.898438 C 819.6875 171.703125 814.601562 173.050781 808.679688 173.050781 C 802.761719 173.050781 798.085938 171.703125 793.519531 169.316406 C 789.050781 166.929688 785.417969 163.089844 782.71875 158.421875 C 780.433594 154.269531 779.1875 149.707031 778.875 144.207031 L 862.265625 144.207031 C 862.476562 142.132812 862.785156 140.160156 862.785156 138.5 L 862.785156 133.625 C 862.785156 123.664062 860.503906 114.636719 855.933594 106.753906 Z M 779.289062 126.984375 C 779.914062 122.9375 781.160156 119.410156 782.820312 116.503906 C 785.625 111.734375 789.261719 108.203125 793.933594 105.820312 C 798.503906 103.433594 803.488281 102.1875 808.992188 102.1875 C 814.496094 102.1875 822.699219 104.367188 827.789062 108.828125 C 832.878906 113.289062 835.679688 119.304688 836.097656 126.878906 L 779.289062 126.878906 Z M 779.289062 126.984375 " fill-opacity="1" fill-rule="nonzero"/><path fill="#1e1a34" d="M 937.144531 105.609375 L 937.144531 83.511719 L 908.585938 83.511719 L 908.585938 54.980469 L 882.3125 54.980469 L 882.3125 159.769531 C 882.3125 168.589844 883.558594 175.4375 886.050781 180.105469 C 888.4375 184.878906 892.175781 187.992188 896.953125 189.652344 C 901.730469 191.3125 907.652344 192.246094 914.710938 192.246094 L 936.003906 192.246094 L 936.003906 169.9375 L 923.019531 169.9375 C 919.179688 169.9375 916.0625 169.523438 914.191406 168.796875 C 912.117188 168.175781 910.664062 166.929688 909.832031 165.0625 C 909.105469 163.089844 908.585938 160.183594 908.585938 156.347656 L 908.585938 105.714844 L 937.144531 105.714844 Z M 937.144531 105.609375 " fill-opacity="1" fill-rule="nonzero"/><path fill="#1e1a34" d="M 1068.414062 158.835938 C 1067.894531 150.121094 1066.023438 142.546875 1062.804688 136.21875 C 1059.792969 129.785156 1054.703125 124.910156 1047.640625 121.382812 C 1054.601562 117.230469 1059.6875 112.042969 1063.011719 105.507812 C 1066.441406 99.074219 1068.101562 91.914062 1068.101562 84.132812 C 1068.101562 76.351562 1066.230469 67.84375 1062.597656 61.101562 C 1058.960938 54.253906 1053.25 48.960938 1045.566406 44.8125 C 1037.878906 40.765625 1027.910156 38.898438 1015.863281 38.898438 L 955.320312 38.898438 L 955.320312 192.347656 L 975.050781 192.347656 L 975.050781 129.785156 L 1015.136719 129.785156 C 1023.652344 129.785156 1030.195312 130.925781 1034.972656 133.105469 C 1039.75 135.179688 1043.074219 138.5 1045.148438 143.066406 C 1047.226562 147.527344 1048.472656 153.542969 1048.886719 160.808594 L 1050.550781 192.347656 L 1070.179688 192.347656 L 1068.308594 158.941406 L 1068.414062 158.941406 Z M 1039.855469 105.507812 C 1034.453125 111.007812 1026.144531 113.808594 1014.515625 113.808594 L 974.945312 113.808594 L 974.945312 55.1875 L 1014.515625 55.1875 C 1026.351562 55.1875 1034.867188 57.78125 1040.0625 62.96875 C 1045.253906 68.15625 1047.851562 75.210938 1047.851562 84.132812 C 1047.851562 93.058594 1045.148438 100.007812 1039.851562 105.507812 Z M 1039.855469 105.507812 " fill-opacity="1" fill-rule="nonzero"/><path fill="#1e1a34" d="M 1094.167969 83.511719 L 1094.167969 192.246094 L 1113.898438 192.246094 L 1113.898438 83.511719 Z M 1091.882812 38.585938 L 1091.882812 62.65625 L 1115.871094 62.65625 L 1115.871094 38.585938 Z M 1091.882812 38.585938 " fill-opacity="1" fill-rule="nonzero"/><g clip-path="url(#9aa6561abb)"><path fill="#1e1a34" d="M 1227.097656 34.4375 L 1227.097656 101.253906 C 1223.460938 94.820312 1218.269531 89.839844 1211.417969 86.210938 C 1204.5625 82.683594 1196.667969 80.8125 1187.84375 80.8125 C 1179.015625 80.8125 1167.796875 83.199219 1159.59375 88.179688 C 1151.492188 93.058594 1145.160156 99.695312 1140.589844 108.308594 C 1136.125 116.816406 1133.734375 126.570312 1133.734375 137.464844 C 1133.734375 148.355469 1136.019531 158.214844 1140.589844 166.824219 C 1145.054688 175.4375 1151.390625 182.285156 1159.386719 187.265625 C 1167.382812 192.246094 1176.9375 194.632812 1187.738281 194.632812 C 1198.539062 194.632812 1205.808594 192.554688 1212.144531 188.40625 C 1218.476562 184.253906 1223.464844 179.585938 1226.992188 174.191406 L 1226.992188 192.039062 L 1246.726562 192.039062 L 1246.726562 34.4375 L 1226.992188 34.4375 Z M 1222.007812 158.734375 C 1218.996094 164.648438 1214.738281 169.316406 1209.339844 172.738281 C 1203.835938 176.164062 1197.5 177.824219 1190.335938 177.824219 C 1183.167969 177.824219 1177.042969 176.164062 1171.539062 172.738281 C 1166.03125 169.316406 1161.671875 164.75 1158.660156 158.734375 C 1155.648438 152.609375 1154.089844 145.761719 1154.089844 137.878906 C 1154.089844 129.992188 1155.648438 122.9375 1158.660156 117.023438 C 1161.671875 111.109375 1166.03125 106.441406 1171.539062 103.015625 C 1177.144531 99.695312 1183.480469 98.039062 1190.335938 98.039062 C 1197.1875 98.039062 1203.835938 99.695312 1209.339844 103.015625 C 1214.738281 106.441406 1218.894531 111.109375 1222.007812 117.128906 C 1225.019531 123.042969 1226.578125 129.992188 1226.578125 137.878906 C 1226.578125 145.761719 1225.019531 152.714844 1222.007812 158.734375 Z M 1222.007812 158.734375 " fill-opacity="1" fill-rule="nonzero"/></g><g clip-path="url(#1a4a7fdc16)"><path fill="#1e1a34" d="M 1365.636719 106.753906 C 1361.480469 98.972656 1355.5625 92.746094 1347.875 88.078125 C 1340.191406 83.304688 1330.949219 80.917969 1320.253906 80.917969 C 1309.554688 80.917969 1300.207031 83.304688 1292.003906 88.078125 C 1283.695312 92.847656 1277.464844 99.488281 1272.894531 107.996094 C 1268.328125 116.503906 1266.042969 126.570312 1266.042969 138.085938 C 1266.042969 149.601562 1268.328125 159.457031 1273 167.863281 C 1277.464844 176.371094 1283.90625 183.011719 1292.109375 187.785156 C 1300.105469 192.554688 1309.453125 194.839844 1320.042969 194.839844 C 1330.636719 194.839844 1336.140625 193.386719 1342.683594 190.273438 C 1349.332031 187.265625 1354.835938 183.011719 1359.195312 177.617188 C 1363.664062 172.117188 1366.777344 166.203125 1368.648438 159.667969 L 1349.125 159.667969 C 1346.839844 165.476562 1343.203125 170.144531 1338.21875 173.363281 C 1333.234375 176.785156 1327.105469 178.445312 1319.835938 178.445312 C 1312.566406 178.445312 1308.207031 176.992188 1302.910156 174.089844 C 1297.714844 171.183594 1293.457031 166.824219 1290.136719 161.015625 C 1287.332031 155.929688 1285.773438 149.601562 1285.566406 142.339844 L 1371.554688 142.339844 C 1371.761719 140.472656 1371.761719 138.707031 1371.761719 136.945312 L 1371.761719 132.171875 C 1371.761719 123.042969 1369.6875 114.535156 1365.53125 106.753906 Z M 1285.773438 127.710938 C 1286.398438 122.210938 1287.746094 117.335938 1290.136719 113.390625 C 1293.25 107.996094 1297.507812 104.054688 1302.804688 101.355469 C 1307.996094 98.660156 1313.710938 97.207031 1319.941406 97.207031 C 1328.976562 97.207031 1336.558594 100.007812 1342.582031 105.300781 C 1348.707031 110.796875 1351.925781 118.164062 1352.445312 127.605469 L 1285.773438 127.605469 Z M 1285.773438 127.710938 " fill-opacity="1" fill-rule="nonzero"/></g><path fill="#1e1a34" d="M 171.65625 203.035156 L 165.632812 209.054688 C 163.761719 210.921875 160.648438 210.921875 158.675781 209.054688 L 137.488281 187.886719 C 126.066406 176.472656 126.066406 158.007812 137.488281 146.59375 C 149.429688 134.660156 149.429688 115.363281 137.488281 103.433594 L 135.929688 101.875 C 123.988281 89.945312 104.671875 89.945312 92.730469 101.875 C 81.304688 113.289062 62.714844 113.289062 51.292969 101.875 L 30.105469 80.710938 C 28.238281 78.84375 28.238281 75.730469 30.105469 73.757812 L 36.128906 67.742188 C 44.4375 59.441406 57.003906 56.847656 67.90625 61.414062 L 96.882812 73.238281 C 107.058594 77.183594 118.585938 75.003906 126.792969 67.84375 L 148.289062 46.367188 C 149.949219 44.8125 151.820312 43.253906 154 42.011719 C 157.84375 39.832031 162.101562 38.691406 166.464844 38.277344 L 198.554688 35.578125 C 201.566406 35.265625 204.160156 37.859375 203.851562 40.871094 L 201.046875 73.34375 C 200.527344 79.984375 197.617188 86.210938 193.050781 91.085938 L 172.695312 111.421875 C 164.386719 119.824219 161.894531 132.378906 166.464844 143.273438 L 167.5 145.761719 L 173.421875 160.082031 L 177.992188 171.390625 C 182.457031 182.285156 179.964844 194.839844 171.65625 203.140625 Z M 171.65625 203.035156 " fill-opacity="1" fill-rule="nonzero"/><g clip-path="url(#58ec27699d)"><path fill="#f93822" d="M 6.84375 233.019531 C 5.804688 231.980469 5.699219 230.21875 6.636719 228.972656 L 27.925781 203.65625 C 38.308594 191.207031 45.371094 178.445312 48.902344 165.582031 C 51.292969 156.554688 52.332031 148.148438 51.8125 140.574219 C 51.8125 139.640625 52.121094 138.707031 52.851562 138.085938 C 53.578125 137.464844 54.613281 137.152344 55.550781 137.359375 C 73.515625 140.992188 92.730469 137.566406 108.304688 127.8125 C 109.449219 127.089844 111.007812 127.296875 111.941406 128.230469 C 112.875 129.164062 113.082031 130.71875 112.355469 131.859375 C 102.59375 147.421875 99.167969 166.617188 102.800781 184.464844 C 103.011719 185.292969 102.800781 186.226562 102.179688 186.953125 C 101.554688 187.679688 100.515625 188.300781 99.582031 188.199219 C 92 187.679688 83.484375 188.613281 74.554688 191.101562 C 61.675781 194.527344 48.800781 201.582031 36.441406 212.0625 L 11.101562 233.332031 C 9.960938 234.265625 8.195312 234.265625 7.050781 233.125 L 6.84375 233.125 Z M 6.84375 233.019531 " fill-opacity="1" fill-rule="nonzero"/></g><g clip-path="url(#b926862140)"><path fill="#000000" d="M 1405.8125 65.695312 C 1393.207031 65.695312 1382.957031 75.945312 1382.957031 88.550781 C 1382.957031 101.152344 1393.207031 111.40625 1405.8125 111.40625 C 1418.414062 111.40625 1428.667969 101.152344 1428.667969 88.550781 C 1428.667969 75.945312 1418.414062 65.695312 1405.8125 65.695312 Z M 1405.8125 113.300781 C 1402.472656 113.300781 1399.230469 112.644531 1396.175781 111.355469 C 1393.230469 110.105469 1390.582031 108.324219 1388.3125 106.050781 C 1386.039062 103.777344 1384.253906 101.128906 1383.007812 98.183594 C 1381.714844 95.132812 1381.0625 91.890625 1381.0625 88.550781 C 1381.0625 85.210938 1381.714844 81.96875 1383.007812 78.914062 C 1384.253906 75.96875 1386.039062 73.320312 1388.3125 71.050781 C 1390.582031 68.777344 1393.230469 66.992188 1396.175781 65.746094 C 1399.230469 64.453125 1402.472656 63.800781 1405.8125 63.800781 C 1409.152344 63.800781 1412.394531 64.453125 1415.445312 65.746094 C 1418.390625 66.992188 1421.039062 68.777344 1423.3125 71.050781 C 1425.585938 73.320312 1427.371094 75.96875 1428.617188 78.914062 C 1429.90625 81.96875 1430.5625 85.210938 1430.5625 88.550781 C 1430.5625 91.890625 1429.90625 95.132812 1428.617188 98.183594 C 1427.371094 101.128906 1425.585938 103.777344 1423.3125 106.050781 C 1421.039062 108.324219 1418.390625 110.105469 1415.445312 111.355469 C 1412.394531 112.644531 1409.152344 113.300781 1405.8125 113.300781 " fill-opacity="1" fill-rule="nonzero"/></g><path fill="#000000" d="M 1395.347656 96.253906 L 1395.347656 82.894531 L 1390.253906 82.894531 L 1390.253906 80.84375 L 1402.953125 80.84375 L 1402.953125 82.894531 L 1397.871094 82.894531 L 1397.871094 96.253906 L 1395.347656 96.253906 " fill-opacity="1" fill-rule="nonzero"/><path fill="#000000" d="M 1418.847656 96.253906 L 1418.847656 88.445312 C 1418.847656 87.777344 1418.863281 87.03125 1418.894531 86.234375 L 1418.910156 83.207031 C 1418.753906 83.679688 1417.65625 87.003906 1417.488281 87.460938 L 1414.265625 96.253906 L 1412.660156 96.253906 L 1409.4375 87.460938 C 1409.273438 87.003906 1408.148438 83.894531 1407.996094 83.433594 L 1408.035156 86.242188 C 1408.066406 87.003906 1408.082031 87.738281 1408.082031 88.429688 L 1408.082031 96.253906 L 1405.558594 96.253906 L 1405.558594 80.84375 L 1409.277344 80.84375 L 1411.960938 88.234375 C 1412.320312 89.226562 1412.671875 90.296875 1413 91.410156 L 1413.449219 92.945312 L 1413.90625 91.414062 C 1414.203125 90.421875 1414.550781 89.363281 1414.945312 88.269531 L 1417.625 80.84375 L 1421.367188 80.84375 L 1421.367188 96.253906 L 1418.847656 96.253906 " fill-opacity="1" fill-rule="nonzero"/></svg>